<svg xmlns="http://www.w3.org/2000/svg" width="1000" height="1000" viewBox="0 0 1000 1000">
  <!-- Generator: Adobe Illustrator 30.2.1, SVG Export Plug-In . SVG Version: 2.1.1 Build 1)  -->
  <defs>
    <style>
      .st0 {
        fill: #fff;
      }

      .st1 {
        fill: #f5c200;
      }

      .st2 {
        fill: #27597c;
      }

      .st3 {
        fill: #fefefe;
      }

      .st4 {
        fill: #579eca;
      }

      .st5 {
        fill: #203c54;
      }
    </style>
  </defs>
  <g>
    <circle class="st0" cx="500.000208" cy="500.0001628" r="379.7777778"/>
    <path class="st5" d="M500.0002441,887.777832c-52.3461914,0-103.1308594-10.2539062-150.9428711-30.4765625-46.1777344-19.53125-87.6474609-47.4902344-123.2573242-83.1005859-35.6103516-35.6103516-63.5698242-77.0800781-83.1010742-123.2578125-20.2226562-47.8115234-30.4765625-98.5966797-30.4765625-150.9423828,0-52.3461914,10.2539062-103.1308594,30.4765625-150.9433594,19.53125-46.1772461,47.4907227-87.6469727,83.1010742-123.2573242,35.6098633-35.6103516,77.0795898-63.5693359,123.2573242-83.1005859,47.8120117-20.2231445,98.5966797-30.4770508,150.9428711-30.4770508,52.3457031,0,103.1308594,10.2539062,150.9433594,30.4770508,46.1767578,19.53125,87.6464844,47.4902344,123.2568359,83.1005859s63.5693359,77.0800781,83.1005859,123.2573242c20.2226562,47.8125,30.4765625,98.597168,30.4765625,150.9433594,0,52.3457031-10.2539062,103.1308594-30.4765625,150.9423828-19.53125,46.1777344-47.4902344,87.6474609-83.1005859,123.2578125s-77.0800781,63.5693359-123.2568359,83.1005859c-47.8125,20.2226562-98.5976562,30.4765625-150.9433594,30.4765625ZM500.0002441,128.222168c-204.9990234,0-371.777832,166.7788086-371.777832,371.7783203,0,204.9990234,166.7788086,371.7773438,371.777832,371.7773438s371.7773438-166.7783203,371.7773438-371.7773438c0-204.9995117-166.7783203-371.7783203-371.7773438-371.7783203Z"/>
  </g>
  <path class="st1" d="M500.0002441,861.1665039c-48.7553711,0-96.0541992-9.5498047-140.5834961-28.3837891-43.0083008-18.1914062-81.6323242-44.2314453-114.7998047-77.3994141-33.1674805-33.1669922-59.2084961-71.7910156-77.3989258-114.7988281-18.8344727-44.5292969-28.3842773-91.8291016-28.3842773-140.5839844,0-48.7553711,9.5498047-96.0546875,28.3842773-140.5839844,18.1904297-43.0078125,44.2314453-81.6323242,77.3989258-114.7998047s71.7915039-59.2080078,114.7998047-77.3989258c44.5292969-18.8344727,91.828125-28.3842773,140.5834961-28.3842773,48.7548828,0,96.0546875,9.5498047,140.5839844,28.3842773,43.0078125,18.190918,81.6318359,44.2314453,114.7998047,77.3989258,33.1669922,33.1674805,59.2080078,71.7919922,77.3994141,114.7998047,18.8339844,44.5292969,28.3837891,91.8286133,28.3837891,140.5839844,0,48.7548828-9.5498047,96.0546875-28.3837891,140.5839844-18.1914062,43.0078125-44.2324219,81.6318359-77.3994141,114.7988281-33.1679688,33.1679688-71.7919922,59.2080078-114.7998047,77.3994141-44.5292969,18.8339844-91.8291016,28.3837891-140.5839844,28.3837891ZM500.0002441,147.8334961c-194.1850586,0-352.1665039,157.9814453-352.1665039,352.1669922,0,194.1845703,157.9814453,352.1660156,352.1665039,352.1660156,194.1855469,0,352.1669922-157.9814453,352.1669922-352.1660156,0-194.1855469-157.9814453-352.1669922-352.1669922-352.1669922Z"/>
  <g>
    <path class="st2" d="M740.1483561,508.0001628s-.2222222,33.3333333-6.8148148,54c0,0-34.7407407,53.1111111-111.6296296,53.1111111-53.1111111,0-87.6296296-29.7037037-87.6296296-29.7037037,0,0,30.5185185,44.3703704,101.4074074,44.3703704,50,0,85.1111111-32.4444444,85.1111111-32.4444444,0,0-8.4444444,24.8888889-22.2222222,40.8888889,0,0-38.2962963,31.2592593-99.037037,31.2592593-75.8518519,0-134.4074074-62.5925926-134.4074074-137.2592593,0-31.3002291,11.7737906-57.6019666,25.4502376-77.5956094-34.0057932,23.4474613-62.6724598,104.2622761-8.8946821,171.8178316,0,0-59.037037-44.0740741-59.037037-123.9259259,0-54.962963,38.8148148-129.037037,130.0740741-136.1481481,42.3703704-7.1111111,90.3703704,34.0740741,90.3703704,34.0740741l9.7777778,70.2222222-63.8481673,23.1533025c20.8852044-24.3384877,2.8111303-55.1533025-27.1147956-55.1533025s-51.5555556,25.1851852-51.5555556,61.3333333c0,42.6666667,45.9259259,91.8518519,108.7407407,91.8518519,60.4444444,0,106.2222222-42.6666667,121.2592593-83.8518519Z"/>
    <path class="st4" d="M273.4076154,586.8149776s-15.5555556-33.4814815-15.5555556-84c0-128.1481481,108-239.2592593,242.1481481-239.2592593,109.7037037,0,195.037037,68.4444444,195.037037,143.7037037,0,54.0740741-33.7777778,97.4814815-88.8888889,97.4814815-15.5555556,0-26.7777778-4.7407407-26.7777778-4.7407407,0,0,31.340309-14.5054942,28.8518519-49.7804216-2.5185185-35.7010599-36.2962963-42.6640228-59.6296296-34.6640228,15.7777778-51.3333333-74-86.2222222-137.1111111-46.6666667,0,0,40.6666667-11.1111111,75.7777778-.6666667,0,0-79.3333333,33.4074074-79.3333333,137.4074074,0,105.9259259,93.5555556,179.9259259,190.4444444,179.9259259,38.4444444,0,73.2592593-14.4444444,73.2592593-14.4444444,0,0-50.3703704,59.4074074-139.8518519,69.1851852-80.5185185-7.1851852-173.3333333-70.5185185-186.962963-187.2592593-5.3333333,57.1851852,13.6296296,138.3703704,125.037037,188.4444444,0,0-120.2962963-11.2592593-176-114.3703704-17.037037-88.6666667,21.6296296-160.4444444,90.5185185-188.6666667,0,0-20.2962963,54.4444444,4.5925926,105.7037037,0,0-16-54.5185185,21.037037-128.5925926-58.2962963,5.7777778-132.8888889,59.4074074-136.5925926,171.2592593Z"/>
    <path class="st3" d="M294.5928006,427.3334961s56-101.5555556,171.1111111-101.5555556c62.2222222,0,100.7407407,36.4444444,100.7407407,64.8888889,0,14.962963-7.8518519,22.2222222-7.8518519,22.2222222,19.5555556,5.9259259,46.7407407-2.8888889,35.2592593-42.2222222,36.5185185,27.7777778,44.7407407,79.1111111,22.7407407,111.7777778,37.3333333-1.3333333,69.1111111-50.4444444,25.1111111-113.7777778,15.5555556,2.8888889,29.4814815,24.8148148,29.4814815,24.8148148-1.7037037-47.4814815-77.037037-108.1481481-173.9259259-108.1481481s-172.4444444,60.8888889-202.6666667,142Z"/>
  </g>
  <g>
    <g>
      <rect class="st1" x="163.4816895" y="474.5" width="78.8886719" height="3"/>
      <rect class="st1" x="163.4816895" y="532.5004883" width="78.8886719" height="3"/>
    </g>
    <g>
      <rect class="st1" x="757.630127" y="474.5" width="78.8886719" height="3"/>
      <rect class="st1" x="757.630127" y="532.5004883" width="78.8886719" height="3"/>
    </g>
  </g>
  <g>
    <path class="st1" d="M174.6931152,518.5180664v-27.2763672h13.15625v4.1303711h-7.4604492v7.0053711h5.75v4.3671875h-5.75v7.8613281h7.8789062v3.9121094h-13.574707Z"/>
    <path class="st1" d="M195.2189941,510.2016602v.7460938c0,1.1533203.2294922,2.0380859.6889648,2.6572266.4594727.6181641,1.105957.9277344,1.9399414.9277344.6889648,0,1.2753906-.2392578,1.7592773-.71875.4829102-.4785156.7250977-1.0341797.7250977-1.6650391,0-.6181641-.2124023-1.2617188-.6367188-1.9287109-.4248047-.6669922-1.7138672-1.8496094-3.8671875-3.5478516s-3.5844727-3.2333984-4.2944336-4.6035156c-.7094727-1.3710938-1.0644531-2.7421875-1.0644531-4.1132812,0-2.1220703.706543-3.8598633,2.1201172-5.2128906,1.4130859-1.3525391,3.2299805-2.0288086,5.449707-2.0288086,2.1108398,0,3.8549805.71875,5.2319336,2.15625,1.3764648,1.4375,2.1015625,3.4423935,2.1743164,6.0141602h-5.1860352l.0361328-.8554688c0-2.0620117-.8188477-3.0932617-2.456543-3.0932617-.6914062,0-1.2553711.2275391-1.6918945.6826172-.4370117.4545898-.6552734,1.0341797-.6552734,1.737793,0,.8974609.3789062,1.7255859,1.137207,2.4833984s2.4868164,2.1201172,5.1860352,4.0849609,4.0488281,4.4335938,4.0488281,7.40625c0,2.171875-.7641602,4-2.2924805,5.4863281-1.5288086,1.4863281-3.5244141,2.2285156-5.9868164,2.2285156-1.4438477,0-2.6962891-.2480469-3.7578125-.7460938-1.0615234-.4970703-1.8989258-1.2099609-2.5112305-2.1376953-.612793-.9277344-.9887695-1.8564453-1.1279297-2.7841797-.1396484-.9277344-.2094727-1.9863281-.2094727-3.1757812h5.2407227Z"/>
    <path class="st1" d="M207.9387207,495.5908203v-4.3491211h15.8491211v4.3491211h-5.0766602v22.9272461h-5.6958008v-22.9272461h-5.0766602Z"/>
    <path class="st1" d="M223.9699707,518.5180664v-5.0224609h5.7138672v5.0224609h-5.7138672Z"/>
  </g>
  <g>
    <path class="st1" d="M767.1955566,499.1020508l-5.6220703-.4912109c.3388672-2.6806641,1.1582031-4.6669922,2.4560547-5.9589844s3.1357422-1.9379883,5.5136719-1.9379883c2.4384766,0,4.3945312.6796875,5.8681641,2.0380859,1.4746094,1.3588867,2.2109375,3.0512695,2.2109375,5.0766602,0,1.8564453-.7910156,3.9179688-2.375,6.1865234-1.5820312,2.2685547-4.6005859,5.5986328-9.0527344,9.9902344h10.8818359v4.5126953h-15.5029297v-3.8027344c3.7236328-4.8408203,6.3203125-8.5615234,7.7871094-11.1640625,1.46875-2.6015625,2.2021484-4.6552734,2.2021484-6.1591797,0-.824707-.1816406-1.4921875-.5458984-2.0014648-.3632812-.5097656-.84375-.7646484-1.4375-.7646484-.7275391,0-1.2734375.3369141-1.6376953,1.0102539s-.6123047,1.828125-.7460938,3.4658203Z"/>
    <path class="st1" d="M778.8156738,504.6518555c0-4.7910156.6835938-8.3120117,2.0498047-10.5625,1.3662109-2.25,3.4951172-3.3754883,6.3847656-3.3754883,2.4658203,0,4.4990234.9736437,6.1025391,2.9204102,1.6035156,1.9472656,2.4042969,5.6923828,2.4042969,11.2363281,0,5.4707031-.8378906,9.2011719-2.5136719,11.1904297-1.6757812,1.9902344-3.6855469,2.984375-6.0292969,2.984375-2.2832031,0-4.2539062-.9306641-5.9121094-2.7929688-1.6572266-1.8623047-2.4863281-5.7285156-2.4863281-11.6005859ZM789.5705566,504.7612305c0-4.3300781-.1708984-7.0625-.5117188-8.1972656-.3408203-1.1337891-.9316406-1.7011719-1.7724609-1.7011719-.8398438,0-1.4316406.5673828-1.7714844,1.7011719-.3417969,1.1347656-.5117188,3.8671875-.5117188,8.1972656,0,4.2949219.1640625,7.0146484.4931641,8.1611328s.9248047,1.7197266,1.7900391,1.7197266,1.4619141-.5732422,1.7910156-1.7197266c.328125-1.1464844.4931641-3.8662109.4931641-8.1611328Z"/>
    <path class="st1" d="M803.0285645,499.1020508l-5.6230469-.4912109c.3398438-2.6806641,1.1582031-4.6669922,2.4570312-5.9589844,1.2978516-1.2919922,3.1357422-1.9379883,5.5136719-1.9379883,2.4375,0,4.3945312.6796875,5.8681641,2.0380859,1.4736328,1.3588867,2.2109375,3.0512695,2.2109375,5.0766602,0,1.8564453-.7919922,3.9179688-2.3740234,6.1865234-1.5839844,2.2685547-4.6015625,5.5986328-9.0527344,9.9902344h10.8808594v4.5126953h-15.5039062v-3.8027344c3.7246094-4.8408203,6.3203125-8.5615234,7.7890625-11.1640625,1.4667969-2.6015625,2.2011719-4.6552734,2.2011719-6.1591797,0-.824707-.1816406-1.4921875-.5458984-2.0014648-.3642578-.5097656-.8427734-.7646484-1.4375-.7646484-.7275391,0-1.2734375.3369141-1.6376953,1.0102539-.3632812.6733398-.6132812,1.828125-.7460938,3.4658203Z"/>
    <path class="st1" d="M815.1398926,505.8530273l1.3291016-14.6113281h14.1201172l-.7822266,4.5126953h-9.1445312l-.5712891,6.2949219c1.4794922-.7753906,2.8554688-1.1640625,4.1298828-1.1640625,2.0009766,0,3.6689453.7773438,5.0039062,2.3291016,1.3339844,1.5527344,2.0009766,3.5849609,2.0009766,6.0957031,0,2.9003906-.8300781,5.2470703-2.4921875,7.0429688-1.6621094,1.7949219-3.8339844,2.6923828-6.5146484,2.6923828-2.2080078,0-4.0029297-.6269531-5.3857422-1.8828125s-2.0751953-2.8417969-2.0751953-4.7587891v-.7099609l5.3320312-.2539062c.1455078,1.3339844.3818359,2.2255859.7099609,2.6748047.3271484.4482422.8613281.6728516,1.6015625.6728516.9570312,0,1.6367188-.3876953,2.0371094-1.1640625s.6005859-2.0380859.6005859-3.7851562c0-1.7226562-.2421875-2.9355469-.7275391-3.6396484-.484375-.703125-1.2851562-1.0556641-2.3994141-1.0556641-1.0908203,0-2.0185547.5458984-2.7822266,1.6376953l-3.9902344-.9277344Z"/>
  </g>
  <g>
    <path class="st5" d="M192.6486816,620.2807617l54.9199219-24.2080078,11.6757812,26.4892578-8.3164062,3.6660156-6.621582-15.0214844-14.1054688,6.2167969,5.1035156,11.578125-8.793457,3.8759766-5.1030273-11.578125-15.8276367,6.9765625,6.9926758,15.8642578-7.8769531,3.4726562-12.0473633-27.3320312Z"/>
    <path class="st5" d="M242.8352051,652.6118164l18.453125-25.6591797,6.9384766,11.0810547-6.4150391,7.9970703c-1.7319336,2.1582031-3.4741211,4.1494141-5.2265625,5.9736328,1.9897461-.8417969,4.4946289-1.6162109,7.5131836-2.3222656l9.9697266-2.3203125,5.7714844,9.2158203-29.6474609,5.7871094-20.0092773,28.0019531-6.9838867-11.1533203,8.4453125-10.5673828c1.6108398-2.0087891,3.4736328-3.9404297,5.5898438-5.7958984-2.9990234,1.2480469-6.0361328,2.2080078-9.112793,2.8779297l-11.7246094,2.6230469-5.9765625-9.5439453,32.4150391-6.1953125Z"/>
    <path class="st5" d="M276.4631348,668.246582l7.2685547-6.2246094,22.6831055,26.4892578-7.2685547,6.2236328-7.2661133-8.484375-38.3193359,32.8134766-8.1513672-9.5195312,38.3193359-32.8134766-7.265625-8.484375Z"/>
    <path class="st5" d="M272.776123,739.2426758l39.5078125-45.1816406,21.7919922,19.0556641-5.9829102,6.8417969-12.3579102-10.8066406-10.1469727,11.6044922,9.5249023,8.3291016-6.3256836,7.2333984-9.5244141-8.328125-11.3857422,13.0205078,13.0507812,11.4121094-5.6665039,6.4804688-22.4853516-19.6611328Z"/>
    <path class="st5" d="M308.5891113,768.9682617l32.3120117-50.578125,14.3061523,9.1396484c4.8134766,3.0751953,7.7368164,6.8037109,8.7705078,11.1855469,1.0327148,4.3828125.1196289,8.8115234-2.7397461,13.2880859-1.7963867,2.8115234-3.7900391,4.8164062-5.9804688,6.0146484-2.1904297,1.1972656-4.8120117,1.7558594-7.8642578,1.6748047l-8.4711914,28.6542969-11.2729492-7.2021484,8.7446289-25.6289062-3.081543-1.96875-14.1621094,22.1679688-10.5610352-6.7470703ZM348.9494629,734.1274414l-2.2944336-1.4658203-8.9672852,14.0361328,1.9907227,1.2724609c4.0263672,2.5712891,7.5991211,1.4179688,10.7172852-3.4638672,1.3505859-2.1142578,1.8916016-4.0888672,1.6230469-5.9238281-.2695312-1.8349609-1.2924805-3.3203125-3.0693359-4.4550781Z"/>
    <path class="st5" d="M354.8190918,796.1323242l25.4433594-54.3583984,11.3505859,5.3125-25.4438477,54.3583984-11.3500977-5.3125Z"/>
    <path class="st5" d="M391.920166,780.2924805c1.5073242-4.7861328,2.9995117-8.7236328,4.4765625-11.8125,1.4765625-3.0888672,3.3847656-5.7695312,5.7255859-8.0410156,2.3398438-2.2705078,4.9736328-3.8066406,7.9008789-4.6064453,2.9267578-.7988281,5.9707031-.7011719,9.1318359.2949219,4.0263672,1.2675781,7.090332,3.6601562,9.190918,7.1757812,2.1000977,3.515625,3.0463867,7.4726562,2.8383789,11.8710938-.2084961,4.3984375-1.3427734,9.8681641-3.4033203,16.4111328-3.6240234,11.5087891-7.8334961,18.78125-12.628418,21.8183594-4.7949219,3.0380859-9.7021484,3.7666016-14.7231445,2.1855469-3.109375-.9794922-5.6655273-2.6035156-7.6689453-4.8710938-2.0039062-2.2675781-3.3222656-4.9980469-3.9545898-8.1923828-.6333008-3.1933594-.6591797-6.46875-.078125-9.8261719s1.6450195-7.4931641,3.1923828-12.4072266ZM414.5915527,788.1459961c2.9423828-9.34375,4.4326172-15.3251953,4.4707031-17.9433594.0375977-2.6181641-.9267578-4.2382812-2.8945312-4.8574219-1.840332-.5800781-3.4643555.1826172-4.8710938,2.2851562-1.4072266,2.1044922-3.5493164,7.7265625-6.4277344,16.8662109-2.7099609,8.6054688-4.0776367,14.2617188-4.1005859,16.96875-.0239258,2.7070312.8588867,4.3427734,2.6479492,4.90625,1.9423828.6113281,3.6630859-.2802734,5.1621094-2.6777344,1.4990234-2.3955078,3.5039062-7.578125,6.0131836-15.5478516Z"/>
    <path class="st5" d="M436.3591309,823.9731445l8.4697266-59.4179688,16.8066406,2.3955078c5.6547852.8056641,9.8598633,2.9902344,12.6152344,6.5507812,2.7543945,3.5605469,3.7573242,7.9707031,3.0078125,13.2285156-.4707031,3.3037109-1.4550781,5.9541016-2.953125,7.9511719-1.4980469,1.9980469-3.6533203,3.5917969-6.465332,4.78125l4.1542969,29.5898438-13.2436523-1.8876953-2.6523438-26.9492188-3.6201172-.5166016-3.7124023,26.0429688-12.4067383-1.7685547ZM458.6711426,775.5473633l-2.6953125-.3847656-2.3505859,16.4902344,2.3388672.3330078c4.7299805.6738281,7.5039062-1.8554688,8.3212891-7.5898438.3540039-2.4833984.0288086-4.5058594-.9755859-6.0644531-1.0053711-1.5585938-2.5512695-2.4873047-4.6386719-2.7841797Z"/>
    <path class="st5" d="M536.3156738,805.0874023l10.6035156-.9990234c.890625,8.0400391-.0644531,14.1289062-2.8652344,18.2666016-2.8007812,4.1386719-6.6992188,6.4423828-11.6953125,6.9130859-6.3515625.5986328-11.2788086-1.4775391-14.7827148-6.2285156s-5.75-12.3740234-6.7387695-22.8720703c-1.9599609-20.8085938,3.1723633-31.7880859,15.3969727-32.9394531,5.1025391-.4804688,9.3803711.9003906,12.8374023,4.1396484,3.4550781,3.2412109,5.5566406,8.7001953,6.3085938,16.3769531l-12,1.1308594c-.4960938-5.2626953-1.1738281-8.6230469-2.0351562-10.0839844-.8613281-1.4599609-2.0634766-2.1181641-3.6040039-1.9726562-2.1264648.2001953-3.4555664,2.0283203-3.987793,5.4824219-.5332031,3.4560547-.4399414,8.9970703.2783203,16.6240234.7333984,7.7861328,1.6616211,13.2285156,2.784668,16.3261719,1.1225586,3.0986328,2.8266602,4.5400391,5.112793,4.3251953,1.9394531-.1835938,3.2207031-1.3154297,3.8417969-3.3984375s.8027344-5.7792969.5449219-11.0908203Z"/>
    <path class="st5" d="M567.6877441,822.9946289l-14.6259766-58.2089844,12.1542969-3.0546875,12.2851562,48.8896484,16.5029297-4.1464844,2.3417969,9.3193359-28.6582031,7.2011719Z"/>
    <path class="st5" d="M612.9748535,810.112793l-22.8916016-55.4804688,26.7597656-11.0419922,3.4667969,8.4013672-15.1757812,6.2617188,5.8798828,14.25,11.6962891-4.8261719,3.6650391,8.8828125-11.6962891,4.8261719,6.5976562,15.9892578,16.0263672-6.6123047,3.2832031,7.9570312-27.6113281,11.3925781Z"/>
    <path class="st5" d="M653.6887207,792.3813477l-23.1103516-56.1640625,16.4101562-9.9257812,39.7617188,46.0947266-10.6669922,6.4511719-8.4443359-9.9599609-10.0214844,6.0605469,4.9121094,12.0957031-8.8408203,5.3476562ZM654.2209473,766.9321289l7.9296875-4.7958984-21.265625-26.1259766,13.3359375,30.921875Z"/>
    <path class="st5" d="M701.0266113,761.8647461l-38.9951172-45.625,8.9785156-7.6738281,29.7675781,14.7998047-6.0107422-6.2929688-14.2294922-16.6494141,7.7919922-6.6601562,38.9951172,45.625-7.1835938,6.1396484-33.5136719-16.4111328,5.9365234,6.453125,16.5595703,19.375-8.0966797,6.9199219Z"/>
    <path class="st5" d="M742.192627,723.746582l-44.8261719-39.9101562,8.3339844-9.3603516,44.8261719,39.9111328-8.3339844,9.359375Z"/>
    <path class="st5" d="M764.3918457,697.6977539l-49.8359375-33.4453125,6.5820312-9.8076172,32.6523438,6.2421875-7.4824219-4.4433594-18.1865234-12.2050781,5.7109375-8.5107422,49.8369141,33.4453125-5.265625,7.8457031-36.6943359-6.7841797,7.4541016,4.6171875,21.1640625,14.2021484-5.9355469,8.84375Z"/>
    <path class="st5" d="M783.786377,626.1967773l-8.2519531-3.7138672,6.5732422-14.6044922,25.7402344,11.5839844-2.1201172,4.7099609c-1.3125-.2685547-2.8417969-.2539062-4.5859375.0439453.953125,3.1513672,1.3984375,5.6425781,1.3359375,7.4726562-.0634766,1.8300781-.5,3.6464844-1.3105469,5.4472656-2.234375,4.9658203-6.3271484,7.734375-12.2773438,8.3056641s-13.5869141-1.2412109-22.9101562-5.4375c-19.1074219-8.5996094-26.015625-18.7773438-20.7246094-30.5341797,2.0810547-4.625,5.3535156-7.6015625,9.8154297-8.9306641s9.5400391-.7119141,15.2363281,1.8515625c.3164062.1425781.7011719.3457031,1.1533203.6074219.453125.2626953.8378906.4648438,1.1542969.6074219l-4.9130859,10.9169922-2.0087891-.9042969c-3.4560547-1.5556641-6.0898438-2.3378906-7.9003906-2.3476562s-3.0546875.7392578-3.734375,2.2490234c-.9970703,2.2148438.0351562,4.3769531,3.0966797,6.4863281,3.0605469,2.109375,7.8408203,4.6259766,14.3398438,7.5517578,7.0585938,3.1767578,12.2509766,5.1035156,15.5751953,5.7802734,3.3251953.6777344,5.5078125-.140625,6.5488281-2.453125.734375-1.6308594.6318359-3.1259766-.3085938-4.4853516-.9394531-1.359375-3.4287109-2.9492188-7.4697266-4.7675781l-2.0537109,4.5644531Z"/>
  </g>
  <g>
    <path class="st5" d="M240.6096191,424.0478516l-55.0698242-19.8994141,5.2836914-14.621582c2.1152344-5.8535156,5.1674805-9.8178711,9.1572266-11.8930664,3.9892578-2.074707,8.6049805-2.1650391,13.8457031-.2714844,5.2167969,1.8852539,8.671875,4.7773438,10.3642578,8.675293,1.6923828,3.8989258,1.527832,8.6450195-.4936523,14.2387695l-1.4892578,4.121582,22.5571289,8.1508789-4.1552734,11.4990234ZM214.3093262,401.5439453l.706543-1.9555664c.9150391-2.5322266.9326172-4.6103516.0517578-6.2358398-.8803711-1.6245117-2.9609375-3.0297852-6.2431641-4.2158203-2.6694336-.9648438-4.8769531-1.1015625-6.621582-.4121094-1.7446289.6904297-3.2558594,2.9584961-4.5356445,6.8056641l16.6420898,6.0136719Z"/>
    <path class="st5" d="M255.4787598,385.9306641l-52.4711914-25.9882812,5.4262695-10.9560547,52.4716797,25.9882812-5.4267578,10.9560547Z"/>
    <path class="st5" d="M264.189209,367.9848633l-49.1835938-31.7739258,6.2529297-9.6796875,31.9580078,5.5317383-7.375-4.2060547-17.9482422-11.5952148,5.4262695-8.3999023,49.184082,31.7744141-5.0024414,7.7436523-35.909668-5.9921875,7.3500977,4.3764648,20.8862305,13.4931641-5.6386719,8.7275391Z"/>
    <path class="st5" d="M288.4855957,332.1704102l-43.9897461-38.6464844,18.6401367-21.2172852,6.6616211,5.8525391-10.5703125,12.0317383,11.2978516,9.9262695,8.1469727-9.2734375,7.043457,6.1875-8.1469727,9.2734375,12.6772461,11.1376953,11.1635742-12.7070312,6.309082,5.5429688-19.2329102,21.8920898Z"/>
    <path class="st5" d="M305.1481934,283l-33.2797852-19.6811523,9.300293-8.0229492,14.0654297,9.2246094c1.8999023,1.2158203,4.081543,2.762207,6.5454102,4.6396484-1.3115234-2.2524414-2.5317383-4.6279297-3.6625977-7.1264648l-6.7895508-15.5009766,7.8710938-6.7900391,14.3657227,34.2954102,15.15625,17.5688477-9.2578125,7.9863281-14.3144531-16.5932617Z"/>
    <path class="st5" d="M348.4211426,276.269043l-38.1132812-45.4960938,9.921875-5.8579102,13.597168,17.8740234c3.8173828,5.034668,8.1645508,11.2988281,13.0415039,18.7919922-4.2319336-9.265625-7.1176758-15.8935376-8.6567383-19.8837891l-8.5668945-22.3413086,9.5146484-5.6181641,9.6547852,11.1293945c6.5952148,7.6889648,12.7460938,15.7001953,18.4526367,24.034668-4.8774414-9.6103516-8.1166992-16.3164062-9.7182617-20.1191406l-8.78125-20.7177734,7.6904297-4.5405273,22.0683594,54.9697266-9.5864258,5.6601562-16.4160156-18.659668c-3.3320312-3.7480469-6.4936523-7.6425781-9.4838867-11.6835938l6.0820312,14.3730469,8.5830078,22.6035156-9.2836914,5.4814453Z"/>
    <path class="st5" d="M379.3312988,225.8393555c-1.6948242-4.5932617-2.8950195-8.5224609-3.5996094-11.7875977-.7050781-3.2646484-.8325195-6.4726562-.3828125-9.6225586.4492188-3.1494141,1.5644531-5.9067383,3.3457031-8.2714844,1.78125-2.3642578,4.1884766-4.105957,7.2216797-5.2250977,3.8637695-1.4257812,7.65625-1.409668,11.3759766.0493164,3.7197266,1.4584961,6.8125,3.9467773,9.277832,7.4643555,2.465332,3.5185547,4.855957,8.4165039,7.1728516,14.6953125,4.0751953,11.043457,5.1694336,19.1679688,3.2832031,24.3745117-1.8857422,5.2070312-5.2373047,8.6982422-10.0551758,10.4760742-2.9838867,1.1010742-5.9257812,1.3745117-8.8256836.8208008-2.9003906-.5537109-5.5478516-1.8730469-7.9428711-3.9599609-2.3955078-2.0859375-4.3710938-4.5976562-5.9272461-7.5351562-1.5561523-2.9370117-3.2041016-6.7631836-4.9438477-11.4785156ZM401.5129395,218.3623047c-3.3085938-8.9663086-5.7299805-14.4711914-7.2641602-16.5146484-1.5341797-2.0424805-3.2456055-2.7163086-5.1337891-2.019043-1.7661133.6513672-2.5639648,2.2094727-2.3935547,4.671875.1704102,2.4633789,1.8740234,8.0800781,5.1103516,16.8510742,3.0473633,8.2583008,5.3691406,13.4384766,6.9672852,15.5410156,1.5986328,2.1030273,3.2558594,2.8374023,4.9726562,2.2041016,1.8637695-.6879883,2.6586914-2.4033203,2.3842773-5.1479492-.2739258-2.7436523-1.8212891-7.9394531-4.6430664-15.5864258Z"/>
    <path class="st5" d="M424.4401855,210.1484375c-.9365234-4.8051758-1.4907227-8.8754883-1.6625977-12.2119141-.1723633-3.3354492.2158203-6.5219727,1.1650391-9.5595703.9482422-3.0366211,2.4912109-5.5795898,4.6289062-7.6274414,2.137207-2.0483398,4.7924805-3.3813477,7.9658203-4,4.0424805-.7875977,7.7832031-.1635742,11.2207031,1.8730469,3.4375,2.0361328,6.0917969,4.9882812,7.9609375,8.855957s3.4438477,9.0859375,4.7236328,15.6547852c2.2514648,11.5542171,2.0288086,19.7490234-.6679688,24.5854492-2.6962891,4.8374023-6.5644531,7.7460938-11.6049805,8.7285156-3.121582.6083984-6.0693359.4067383-8.8427734-.6049805-2.7739258-1.0117188-5.1757812-2.7387695-7.2050781-5.1826172-2.0302734-2.4428711-3.5771484-5.2387695-4.6420898-8.3881836-1.0649414-3.1484375-2.078125-7.1894531-3.0395508-12.1230469ZM447.5334473,206.3251953c-1.8276367-9.3803711-3.3349609-15.2021484-4.5214844-17.465332-1.1870117-2.262207-2.7680664-3.2016602-4.7436523-2.8164062-1.8476562.3598633-2.8852539,1.7695312-3.1118164,4.2275391-.2270508,2.4589844.5541992,8.2763672,2.3422852,17.4526367,1.6835938,8.6396484,3.1445312,14.1259766,4.3847656,16.4570312,1.2407227,2.3320312,2.7587891,3.3227539,4.5546875,2.9731445,1.9501953-.3798828,3.0097656-1.9458008,3.1791992-4.6987305.1694336-2.7524414-.5249023-8.1289062-2.0839844-16.1298828Z"/>
    <path class="st5" d="M474.0583496,231.0546875l-1.9868164-58.5209961,13.2739258-.4506836c7.6518555-.2597656,13.2290039,1.7006836,16.7324219,5.8813477,3.503418,4.1801758,5.4423828,11.7885742,5.8168945,22.8232422.3535156,10.4111328-1.1835938,17.921875-4.609375,22.5327148-3.4262695,4.6113281-9.4208984,7.0620117-17.9833984,7.3525391l-11.2436523.3818359ZM484.5974121,181.137207l1.3598633,40.0551758c2.7324219-.0927734,4.7475586-.6108398,6.0444336-1.5537109s2.1894531-2.8554688,2.6777344-5.7387695c.4887695-2.8828125.6298828-7.355957.4238281-13.4204102-.206543-6.090332-.6958008-10.5097656-1.4663086-13.2587891-.7709961-2.7490234-1.8193359-4.472168-3.1459961-5.1694336-1.3266602-.6977539-3.2915039-1.0024414-5.8935547-.9140625Z"/>
    <path class="st5" d="M528.2185059,213.78125l-.1875,1.590332c-.2905273,2.4575195-.0244141,4.402832.7993164,5.8374023s2.1245117,2.2568359,3.9033203,2.4667969c1.46875.1738281,2.7773438-.1889648,3.9296875-1.0893555,1.1523438-.8994141,1.8066406-2.0219727,1.9667969-3.3666992.1542969-1.3193359-.1367188-2.7431641-.8730469-4.2724609-.7382812-1.5292969-3.1875-4.375-7.3500977-8.5385742-4.1630859-4.1625977-6.828125-7.7944336-7.9956055-10.8959961-1.1679688-3.1005859-1.5791016-6.1123047-1.2338867-9.0351562.534668-4.5253906,2.4785156-8.0522461,5.8320312-10.5800781,3.3530273-2.527832,7.3959961-3.512207,12.1303711-2.953125,4.5.53125,8.0351562,2.5029297,10.609375,5.9140625,2.5722656,3.4116211,3.6132812,7.8681641,3.1210938,13.3686523l-11.0566406-1.3056641.2929688-1.8139648c.5195312-4.3964844-.9667969-6.8012695-4.4570312-7.2133789-1.4746094-.1743164-2.734375.1684757-3.7792969,1.0283203-1.046875.8598633-1.6582031,2.0400391-1.8349609,3.5400391-.2255859,1.9140625.3740234,3.7744141,1.7998047,5.581543,1.4238281,1.8071289,4.7675781,5.1455078,10.0273438,10.0146484,5.2578125,4.8691406,7.5136719,10.472168,6.765625,16.8081055-.546875,4.6298828-2.6367188,8.3359375-6.2695312,11.1186523-3.6328125,2.7836914-8.0742188,3.8647461-13.3237305,3.2446289-3.078125-.3632812-5.6855469-1.2089844-7.8227539-2.5366211-2.1381836-1.3271484-3.7431641-3.0576172-4.8149414-5.1904297-1.0727539-2.1328125-1.6411133-4.2060547-1.7041016-6.2192383-.0639648-2.0136719.0537109-4.2871094.3530273-6.8222656l11.1723633,1.3198242Z"/>
    <path class="st5" d="M573.9953613,240.0458984l19.4804688-55.2192383,14.6611328,5.171875c5.8691406,2.0703125,9.8564453,5.0922852,11.9619141,9.065918s2.2304688,8.5888672.3769531,13.84375c-1.8447266,5.230957-4.7109375,8.7080078-8.5957031,10.4296875-3.8857422,1.722168-8.6337891,1.59375-14.2421875-.3847656l-4.1328125-1.4580078-7.9794922,22.6181641-11.5302734-4.0673828ZM596.2990723,213.5751953l1.9599609.6914062c2.5400391.8959961,4.6181641.8974609,6.2363281.0043945,1.6181641-.8925781,3.0078125-2.9838867,4.1689453-6.2753906.9443359-2.6762695,1.0644531-4.8847656.3613281-6.6240234-.7041016-1.7392578-2.9833984-3.2333984-6.8398438-4.4838867l-5.8867188,16.6875Z"/>
    <path class="st5" d="M642.3244629,223.5297852l-2.9912109,5.8413086c5.5712891-2.8813477,10.4199219-3.265625,14.5458984-1.152832l-5.2519531,10.2568359c-1.3496094-1.421875-2.6035156-2.4301758-3.7617188-3.0234375-2.8515625-1.4599609-5.609375-1.7021484-8.2744141-.7260742l-13.0498047,25.4853516-10.0488281-5.1455078,18.7841797-36.6811523,10.0478516,5.1455078Z"/>
    <path class="st5" d="M649.1691895,251.2177734c4.0488281-5.9697266,8.3095703-9.7822266,12.7832031-11.4370117,4.4726562-1.6547852,8.7890625-1.0717773,12.9492188,1.7495117,3.9003906,2.6450195,5.9804688,6.3530273,6.2392578,11.1220703.2578125,4.7695312-1.4404297,9.8481445-5.09375,15.2358398-4.0644531,5.9921875-8.2910156,9.8115234-12.6806641,11.4594727-4.390625,1.6479492-8.6865234,1.0473633-12.8896484-1.8032227-4.1376953-2.8061523-6.3261719-6.5161133-6.5634766-11.1298828-.2382812-4.6137695,1.5136719-9.6791992,5.2558594-15.1967773ZM664.036377,264.5102539c4.2392578-6.25,6.6308594-10.2763672,7.1757812-12.0776367.5449219-1.8017578.2470703-3.0893555-.8955078-3.8642578-1.2714844-.8623047-2.6259766-.7900391-4.0644531.2172852-1.4384766,1.0068359-3.1953125,3.0410156-5.2705078,6.1010742-3.8144531,5.6254883-6.0302734,9.4487305-6.6455078,11.4697266-.6162109,2.0209961-.2666016,3.4770508,1.0488281,4.3691406,1.1201172.7597656,2.3310547.668457,3.6318359-.2749023,1.2998047-.9423828,2.9726562-2.9228516,5.0195312-5.9404297Z"/>
    <path class="st5" d="M675.7893066,294.7871094l33.8955078-48.7197266,8.2568359,8.0356445-13.6777344,17.8129883c-3.8554688,5.0048828-8.7587891,10.84375-14.7089844,17.5170898,7.8300781-6.515625,13.4677734-11.0405273,16.9140625-13.5732422l19.3085938-14.1308594,7.9189453,7.7060547-8.2050781,12.2373047c-5.6875,8.3828125-11.8027344,16.4204102-18.3466797,24.1152344,7.9921875-7.2290039,13.6132812-12.1157227,16.8613281-14.6591797l17.6865234-13.9116211,6.4003906,6.2285156-47.2490234,35.7246094-7.9775391-7.7646484,13.6953125-20.7382812c2.7421875-4.1992188,5.6699219-8.2719727,8.7841797-12.21875l-12.2724609,9.6420898-19.5576172,14.2158203-7.7265625-7.519043Z"/>
    <path class="st5" d="M722.7072754,342.3686523c-3.90625-.621582-6.7714844-2.1811377-8.5957031-4.6782227-1.8554688-2.5385742-2.5263672-5.1879883-2.0107422-7.9467773s2.1191406-5.121582,4.8105469-7.0888672c7.2529297-5.3012695,15.3691406-3.5087891,24.3496094,5.3789062l3.3427734-2.4433594c2.1650391-1.5825195,2.5908203-3.2739258,1.2753906-5.0727539-1.40625-1.9248047-3.5-2.2080078-6.28125-.8486328l-4.3642578-7.890625c3.3466797-1.8647461,6.3867188-2.4267578,9.1230469-1.6845703,2.7353516.7421875,5.3798828,2.8579102,7.9306641,6.3481445,2.5664062,3.5112305,3.8203125,6.8603516,3.7626953,10.0473633s-1.3896484,5.7333984-3.9960938,7.6386719l-16.5253906,12.0786133c-2.3339844,1.7055664-5.1513672,4.184082-8.4521484,7.4355469l-6.4541016-8.8300781c.5361328-.8115234,1.2314453-1.6259766,2.0849609-2.4433594ZM726.3439941,338.9365234l9.4296875-6.8920898c-1.3876953-1.8095703-3.0273438-2.8173828-4.9189453-3.0224609s-3.7099609.3300781-5.4550781,1.6054688c-1.3251953.9682617-2.1572266,2.0576172-2.4980469,3.2685547-.3408203,1.2114258-.1660156,2.2875977.5214844,3.2290039.4892578.6689453,1.4628906,1.2729492,2.9208984,1.8115234Z"/>
    <path class="st5" d="M742.3381348,354.9990234l5.3632812,7.6777344c-3.2324219,2.5732422-4.2011719,5.0786133-2.9052734,7.5166016.5253906.9882812,1.2490234,1.6582031,2.1708984,2.0087891.9228516.3500977,1.7509766.3300781,2.4853516-.0605469.8037109-.4272461,1.3232422-1.2792969,1.5566406-2.5561523.2333984-1.2773438.4570312-3.9248047.6699219-7.9433594s.8798828-7.0839844,1.9980469-9.1972656c1.1171875-2.1132812,2.6884766-3.7075195,4.7128906-4.7827148,3.0351562-1.6137695,6.2333984-1.824707,9.5947266-.6323242,3.3613281,1.1918945,5.9716797,3.5351562,7.8291016,7.0307617,1.6621094,3.1269674,2.1484375,6.1645508,1.4589844,9.1118164-.6894531,2.9467773-2.5498047,5.5649414-5.5800781,7.8540039l-5.2978516-7.1376953c2.6367188-2.6401367,3.4365234-4.9379883,2.3974609-6.8920898-.9287109-1.7480469-2.2675781-2.1567383-4.0146484-1.2280273-.7128906.378418-1.2802734,1.0854492-1.703125,2.121582s-.703125,3.8242188-.8408203,8.3652344-.8222656,7.9277344-2.0537109,10.1601562c-1.2324219,2.2324219-2.859375,3.8867188-4.8828125,4.9619141-3.1044922,1.6503906-6.3349609,1.8554688-9.6923828.6171875-3.3564453-1.2392578-6.0371094-3.7436523-8.0410156-7.5146484-1.9433594-3.65625-2.5068359-7.2133789-1.6904297-10.6699219.8164062-3.4575195,2.9716797-6.3945312,6.4648438-8.8110352Z"/>
    <path class="st5" d="M748.9875488,395.1899414l55.1015625-19.809082,3.8193359,10.6235352-19.3349609,6.9511719c4.0253906,2.730957,6.5097656,5.4077148,7.453125,8.0302734,1.7353516,4.8271484-.5097656,8.3603516-6.7333984,10.5981445l-30.4736328,10.9550781-3.8193359-10.6235352,29.296875-10.5322266c1.7402344-.6254883,2.3105469-1.7714844,1.7119141-3.4379883-.4316406-1.2011719-1.3417969-2.2299805-2.7294922-3.0869141l-30.4726562,10.9550781-3.8193359-10.6235352Z"/>
  </g>
</svg>
